TITLE ""
FILE "Step2_Track33.mp3" MP3
  TRACK 01 AUDIO
    TITLE "Step2_Track33_01"
    INDEX 01 00:00:00
  TRACK 02 AUDIO
    TITLE "Step2_Track33_02"
    INDEX 01 00:00:24
  TRACK 03 AUDIO
    TITLE "Step2_Track33_03"
    INDEX 01 00:02:03
  TRACK 04 AUDIO
    TITLE "Step2_Track33_04"
    INDEX 01 00:02:64
  TRACK 05 AUDIO
    TITLE "Step2_Track33_05"
    INDEX 01 00:03:60
  TRACK 06 AUDIO
    TITLE "Step2_Track33_06"
    INDEX 01 00:04:00
  TRACK 07 AUDIO
    TITLE "Step2_Track33_07"
    INDEX 01 00:06:23
  TRACK 08 AUDIO
    TITLE "Step2_Track33_08"
    INDEX 01 00:06:46
  TRACK 09 AUDIO
    TITLE "Step2_Track33_09"
    INDEX 01 00:07:40
  TRACK 10 AUDIO
    TITLE "Step2_Track33_10"
    INDEX 01 00:07:48
  TRACK 11 AUDIO
    TITLE "Step2_Track33_11"
    INDEX 01 00:10:13
  TRACK 12 AUDIO
    TITLE "Step2_Track33_12"
    INDEX 01 00:10:34
  TRACK 13 AUDIO
    TITLE "Step2_Track33_13"
    INDEX 01 00:11:34
  TRACK 14 AUDIO
    TITLE "Step2_Track33_14"
    INDEX 01 00:11:39
  TRACK 15 AUDIO
    TITLE "Step2_Track33_15"
    INDEX 01 00:13:58
  TRACK 16 AUDIO
    TITLE "Step2_Track33_16"
    INDEX 01 00:14:18
  TRACK 17 AUDIO
    TITLE "Step2_Track33_17"
    INDEX 01 00:15:18
  TRACK 18 AUDIO
    TITLE "Step2_Track33_18"
    INDEX 01 00:15:27
  TRACK 19 AUDIO
    TITLE "Step2_Track33_19"
    INDEX 01 00:17:44
  TRACK 20 AUDIO
    TITLE "Step2_Track33_20"
    INDEX 01 00:18:02
  TRACK 21 AUDIO
    TITLE "Step2_Track33_21"
    INDEX 01 00:18:71
  TRACK 22 AUDIO
    TITLE "Step2_Track33_22"
    INDEX 01 00:19:10
  TRACK 23 AUDIO
    TITLE "Step2_Track33_23"
    INDEX 01 00:21:44
  TRACK 24 AUDIO
    TITLE "Step2_Track33_24"
    INDEX 01 00:21:69
  TRACK 25 AUDIO
    TITLE "Step2_Track33_25"
    INDEX 01 00:22:73
  TRACK 26 AUDIO
    TITLE "Step2_Track33_26"
    INDEX 01 00:23:09
  TRACK 27 AUDIO
    TITLE "Step2_Track33_27"
    INDEX 01 00:26:37
  TRACK 28 AUDIO
    TITLE "Step2_Track33_28"
    INDEX 01 00:26:66
  TRACK 29 AUDIO
    TITLE "Step2_Track33_29"
    INDEX 01 00:27:66
  TRACK 30 AUDIO
    TITLE "Step2_Track33_30"
    INDEX 01 00:28:01
  TRACK 31 AUDIO
    TITLE "Step2_Track33_31"
    INDEX 01 00:30:62
  TRACK 32 AUDIO
    TITLE "Step2_Track33_32"
    INDEX 01 00:31:15
  TRACK 33 AUDIO
    TITLE "Step2_Track33_33"
    INDEX 01 00:32:10
  TRACK 34 AUDIO
    TITLE "Step2_Track33_34"
    INDEX 01 00:32:26
  TRACK 35 AUDIO
    TITLE "Step2_Track33_35"
    INDEX 01 00:34:56
  TRACK 36 AUDIO
    TITLE "Step2_Track33_36"
    INDEX 01 00:35:13
  TRACK 37 AUDIO
    TITLE "Step2_Track33_37"
    INDEX 01 00:36:14
  TRACK 38 AUDIO
    TITLE "Step2_Track33_38"
    INDEX 01 00:36:22
  TRACK 39 AUDIO
    TITLE "Step2_Track33_39"
    INDEX 01 00:38:30
  TRACK 40 AUDIO
    TITLE "Step2_Track33_40"
    INDEX 01 00:38:62
  TRACK 41 AUDIO
    TITLE "Step2_Track33_41"
    INDEX 01 00:39:57
  TRACK 42 AUDIO
    TITLE "Step2_Track33_42"
    INDEX 01 00:39:67
  TRACK 43 AUDIO
    TITLE "Step2_Track33_43"
    INDEX 01 00:41:62
